# xmcd
#
# Track frame offsets: 
#        150
#        15108
#        27116
#        37212
#        49648
#        61048
#        73509
#        90669
#        99447
#        107392
#        117492
#        130089
#        147157
#        157460
#        167670
#        179189
#        189605
#        204777
#        219059
#        236987
#
# Disc length: 3300 seconds
#
# Revision: 1
# Processed by: cddbd v1.5.2PL0 Copyright (c) Steve Scherf et al.
# Submitted via: ExactAudioCopyFreeDBPlugin 1.0
#
DISCID=110ce214
DTITLE=Various Artist - Le Beat Bespoké 2
DYEAR=1900
DGENRE=
TTITLE0=Pappys Haunted House - Dude
TTITLE1=Jimmy Thomas - Springtime
TTITLE2=The Light Nites - One, Two, Boogaloo
TTITLE3=The Palace Guards - Gas Station Boogaloo Downtown
TTITLE4=New Hudson Exit - Too Many People
TTITLE5=E G Smith and The Power - Her Own Life
TTITLE6=The Moody Five - Blue Tail Fly
TTITLE7=Paul King - So Right
TTITLE8=Dick Turpin - Madeline
TTITLE9=Proud Flesh - Happy
TTITLE10=Shere Khan - Little Louise
TTITLE11=The Tops - I Found You
TTITLE12=Brunetta and The Balubas - Baluba Shake
TTITLE13=Mary Mccarthy - You Know He Did
TTITLE14=Martells - Time To Say Goodnight
TTITLE15=Christie Luame - Rouge-Rouge
TTITLE16=Louisa Jane White - Truth In My Tears
TTITLE17=Heidi Brühl - Berlin
TTITLE18=Paul Nicholas - Run Shaker Life
TTITLE19=M.U.5 - Mrs. Watson
EXTD=
EXTT0=
EXTT1=
EXTT2=
EXTT3=
EXTT4=
EXTT5=
EXTT6=
EXTT7=
EXTT8=
EXTT9=
EXTT10=
EXTT11=
EXTT12=
EXTT13=
EXTT14=
EXTT15=
EXTT16=
EXTT17=
EXTT18=
EXTT19=
PLAYORDER=
